<svg width="35" height="35" viewBox="0 0 35 35" fill="none" xmlns="http://www.w3.org/2000/svg">
<path d="M34.3288 15.8828C34.5416 16.0948 34.7104 16.3467 34.8255 16.6241C34.9407 16.9015 35 17.1988 35 17.4992C35 17.7995 34.9407 18.0969 34.8255 18.3743C34.7104 18.6517 34.5416 18.9036 34.3288 19.1156L19.1156 34.3288C18.9036 34.5416 18.6517 34.7104 18.3743 34.8255C18.0969 34.9407 17.7995 35 17.4992 35C17.1988 35 16.9014 34.9407 16.6241 34.8255C16.3467 34.7104 16.0948 34.5416 15.8828 34.3288L0.669538 19.1156C0.457268 18.9033 0.288887 18.6513 0.174007 18.374C0.0591279 18.0966 3.16306e-09 17.7994 0 17.4992C-3.16306e-09 17.199 0.0591279 16.9017 0.174007 16.6244C0.288887 16.347 0.457268 16.095 0.669538 15.8828C0.881807 15.6705 1.13381 15.5021 1.41115 15.3872C1.68849 15.2724 1.98575 15.2132 2.28594 15.2132C2.58614 15.2132 2.88339 15.2724 3.16074 15.3872C3.43808 15.5021 3.69008 15.6705 3.90235 15.8828L17.5011 29.4777L31.0998 15.8771C31.3121 15.6653 31.5641 15.4974 31.8413 15.383C32.1185 15.2687 32.4156 15.2101 32.7155 15.2106C33.0154 15.2112 33.3122 15.2708 33.5891 15.3861C33.8659 15.5015 34.1173 15.6702 34.3288 15.8828ZM15.8828 19.1156C16.0948 19.3283 16.3467 19.4971 16.6241 19.6123C16.9014 19.7275 17.1988 19.7868 17.4992 19.7868C17.7995 19.7868 18.0969 19.7275 18.3743 19.6123C18.6517 19.4971 18.9036 19.3283 19.1156 19.1156L34.3288 3.90235C34.5411 3.69008 34.7095 3.43808 34.8243 3.16074C34.9392 2.88339 34.9983 2.58614 34.9983 2.28594C34.9983 1.98575 34.9392 1.68849 34.8243 1.41115C34.7095 1.13381 34.5411 0.881806 34.3288 0.669537C34.1165 0.457267 33.8645 0.288886 33.5872 0.174007C33.3099 0.0591272 33.0126 0 32.7124 0C32.4122 0 32.115 0.0591272 31.8376 0.174007C31.5603 0.288886 31.3083 0.457267 31.096 0.669537L17.5011 14.2645L3.90235 0.669537C3.47365 0.240839 2.89221 -4.51706e-09 2.28594 0C1.67967 4.51706e-09 1.09824 0.240839 0.669538 0.669537C0.24084 1.09823 4.51706e-09 1.67967 0 2.28594C-4.51706e-09 2.89221 0.24084 3.47365 0.669538 3.90235L15.8828 19.1156Z" fill="#878EA1"/>
</svg>
