<svg width="92" height="86" viewBox="0 0 92 86" fill="none" xmlns="http://www.w3.org/2000/svg">
<path d="M56.1406 7.41125C56.932 7.37645 57.7224 7.49797 58.4668 7.76868L58.4658 7.76965C59.2104 8.04015 59.8951 8.45351 60.4795 8.9884C61.0638 9.52327 61.537 10.1681 61.8721 10.8859C62.2072 11.6037 62.3978 12.3806 62.4326 13.172C62.4674 13.9633 62.3459 14.7538 62.0752 15.4982L40.5752 74.6232C40.1521 75.787 39.3805 76.7927 38.3662 77.5031C37.3527 78.2127 36.1454 78.5926 34.9082 78.5929L34.9053 78.5939V78.5929C34.1991 78.5934 33.4984 78.4694 32.8359 78.2247V78.2238C31.3378 77.6761 30.1166 76.5579 29.4414 75.1124C28.7649 73.664 28.6911 72.0059 29.2363 70.5031L29.2373 70.5021L50.7373 11.3771L50.8447 11.1007C51.1126 10.463 51.489 9.87565 51.957 9.36438C52.4919 8.78006 53.1367 8.3069 53.8545 7.9718C54.5723 7.6367 55.3492 7.44609 56.1406 7.41125ZM20.3086 24.9181C21.5392 23.9097 23.1183 23.4286 24.7021 23.5792C26.2862 23.73 27.7472 24.5002 28.7656 25.7228C29.784 26.9454 30.2777 28.5213 30.1396 30.1066C30.0016 31.6918 29.2427 33.1585 28.0283 34.1866L28.0166 34.1964L17.4492 43.0001L28.0039 51.7931L28.2295 51.9874C28.7448 52.4541 29.1763 53.0073 29.5039 53.6222C29.8782 54.3247 30.1092 55.0944 30.1846 55.8868C30.26 56.6793 30.1784 57.4789 29.9434 58.2394C29.7082 58.9999 29.3249 59.7068 28.8154 60.3185C28.3059 60.9302 27.6801 61.4351 26.9746 61.8038C26.2691 62.1726 25.4972 62.3978 24.7041 62.4669C23.9111 62.536 23.1121 62.4473 22.3535 62.2062C21.5999 61.9666 20.9007 61.5807 20.2959 61.0714L4.1709 47.6339C3.49147 47.0679 2.94448 46.3595 2.56934 45.5587C2.19421 44.758 2.00002 43.8844 2 43.0001C2 42.1159 2.19425 41.2423 2.56934 40.4415C2.94447 39.6408 3.49152 38.9323 4.1709 38.3663L20.3018 24.924L20.3086 24.9181ZM66.6084 23.5333C67.4013 23.4643 68.2004 23.5529 68.959 23.7941C69.7127 24.0337 70.4118 24.4194 71.0166 24.9288L87.1416 38.3663C87.8209 38.9323 88.3671 39.6409 88.7422 40.4415C89.1173 41.2423 89.3125 42.1158 89.3125 43.0001C89.3125 43.8844 89.1173 44.758 88.7422 45.5587C88.4139 46.2594 87.9546 46.8894 87.3896 47.4152L87.1416 47.6339L71.0166 61.0714C70.4118 61.5808 69.7126 61.9665 68.959 62.2062C68.2004 62.4473 67.4013 62.5359 66.6084 62.4669C65.8154 62.3979 65.0434 62.1725 64.3379 61.8038C63.6324 61.4351 63.0066 60.9301 62.4971 60.3185C61.9876 59.7068 61.6043 59 61.3691 58.2394C61.134 57.4788 61.0516 56.6793 61.127 55.8868C61.2024 55.0944 61.4343 54.3247 61.8086 53.6222C62.183 52.9196 62.6929 52.2977 63.3086 51.7931L73.8613 43.0001L63.2959 34.1964V34.1954C62.7628 33.756 62.309 33.2295 61.9551 32.6378L61.8086 32.3781C61.4343 31.6755 61.2024 30.9059 61.127 30.1134C61.0516 29.321 61.1341 28.5214 61.3691 27.7609C61.6043 27.0003 61.9876 26.2934 62.4971 25.6818C63.0066 25.0701 63.6323 24.5651 64.3379 24.1964C65.0434 23.8277 65.8154 23.6024 66.6084 23.5333Z" fill="#0A5AD9" stroke="#16181D" stroke-width="4"/>
</svg>
