<?xml version="1.0" encoding="utf-8" ?><svg xmlns="http://www.w3.org/2000/svg" fill="#E0234E" xmlns:xlink="http://www.w3.org/1999/xlink" width="512" height="512" viewBox="0 0 512 512"><path d="M395.993 492.059C396.259 482.039 396.06 471.149 396.063 461.06L396.072 403.465L396.068 229.575L396.076 161.979L396.045 142.014C396.016 134.152 394.086 121.789 404.457 120.368C407.198 119.993 410.421 120.09 413.225 120.078L427.466 120.067L452.74 120.093C457.577 120.105 464.994 119.653 469.589 120.808C472.949 121.653 476.023 126.464 475.849 129.744C476.023 133.94 475.945 138.019 475.927 142.166L475.899 162.685L475.929 231.004L475.9 389.587L475.866 463.939C475.912 473.202 475.827 482.743 476.031 491.98C481.141 491.919 488.643 491.008 492.609 494.637C496.513 498.209 497.041 505.11 493.131 508.866C491.201 510.799 489.843 510.821 487.699 512L24.5893 512C23.1964 511.479 21.7245 510.963 20.461 510.163C16.3909 507.585 15.1121 502.104 17.0409 497.789C18.0179 495.552 19.8498 493.798 22.1281 492.92C25.1558 491.784 32.4362 492.06 35.9952 492.037C36.3638 478.907 36.0743 464.519 36.0787 451.297L36.0987 374.994L36.0827 346.035C36.0685 340.403 35.8017 334.509 36.3289 328.932C37.2822 318.847 47.6842 320.088 54.8838 320.088L71.3579 320.103L93.289 320.077C97.2697 320.071 101.317 319.993 105.303 320.12C108.909 320.235 111.29 321.072 113.741 323.86C114.974 325.262 115.689 327.539 115.8 329.4C116.087 334.253 115.957 339.363 115.938 344.235L115.878 370.981L115.9 449.974L115.914 476.425C115.922 481.43 115.821 487.062 116.038 492.013C128.353 492.24 143.728 492.437 155.991 492.036C156.436 474.476 156.062 455.246 156.068 437.535L156.085 332.068L156.082 290.423C156.077 283.232 155.889 275.887 156.335 268.724C156.584 264.723 160.025 261.003 163.968 260.466C167.213 260.039 170.611 260.135 173.89 260.122L190.463 260.111L212.79 260.129C217.072 260.125 221.353 260.124 225.58 260.208C231.15 260.318 235.503 263.821 235.798 269.565C236.106 275.571 235.826 281.726 235.804 287.751L235.776 322.915L235.835 433.617L235.899 471.871C235.917 477.927 235.718 486.041 236.053 492.003C249.366 492.245 262.682 492.271 275.996 492.08C276.243 484.313 276.064 475.734 276.069 467.887L276.098 423.508L276.106 286.02L276.107 235.614L276.073 220.265C276.051 214.884 275.014 205.651 279.882 202.212C283.885 199.384 290.589 200.159 295.404 200.147L315.176 200.101L334.463 200.09C340.429 200.046 349.36 198.683 353.545 203.606C355.055 205.382 355.738 207.657 355.86 209.971C356.073 218.036 355.908 226.17 355.876 234.241L355.833 280.029L355.852 419.562L355.901 467.035C355.919 474.895 355.703 484.305 356.039 492.019C368.217 492.438 383.77 492.387 395.993 492.059ZM416.037 492.001C423.944 492.127 431.852 492.176 439.759 492.148C444.616 492.151 450.253 492.274 455.062 492.01L455.854 491.965C456.443 490.601 456.13 405.639 456.133 399.265L456.135 230.001L456.092 171.835C456.079 161.305 456.186 150.482 455.997 139.978C443.74 139.512 429.468 139.927 417.036 139.839L416.166 140.067C415.652 141.196 415.919 213.127 415.92 218.969L415.931 401.238L415.865 461.654L415.887 480.46C415.894 484.089 415.805 488.421 416.037 492.001ZM57.0359 339.841L56.241 340.104C55.7265 341.672 55.959 355.566 55.9602 358.099L55.9516 392.984L55.9315 457.477C55.9287 468.251 55.5894 481.399 56.0303 492.019C64.3095 492.125 72.5893 492.163 80.8691 492.134C85.3641 492.136 90.6412 492.289 95.0616 492.019L95.7671 491.926C96.6998 489.632 96.2073 355.407 95.9968 339.955C83.7535 339.411 69.523 339.937 57.0359 339.841ZM296.026 492.004C303.388 492.185 310.753 492.241 318.117 492.175C323.938 492.178 330.207 492.287 335.972 492.012C336.235 489.021 336.094 484.916 336.09 481.808L336.094 464.235L336.159 405.022L336.011 220.004L310.578 219.949C306.64 219.924 299.763 219.681 295.966 220.009L295.816 401.534L295.815 460.702L295.847 480.454C295.859 483.995 295.771 488.531 296.026 492.004ZM176.975 279.82L176.068 280.097C175.831 281.667 175.918 285.332 175.913 287.133L175.919 300.916L175.896 347.087L175.904 443.783L175.952 474.875C175.96 480.408 175.82 486.514 176.034 491.995C188.799 492.224 202.973 492.334 215.714 491.995C215.811 491.872 215.937 491.767 216.005 491.625C216.253 491.104 216.284 298.312 215.993 279.991C203.684 279.545 189.445 279.825 176.975 279.82Z"/><path d="M364.339 0L427.45 0C429.665 1.05517 430.745 1.07965 432.84 2.82087C435.274 4.845 435.774 8.21027 435.876 11.2675C436.011 15.2886 435.946 19.6406 435.946 23.7093L435.962 46.4104L435.977 61.0681C435.983 64.7208 436.153 68.2324 435.63 71.9658C434.238 81.8906 418.73 82.2252 416.569 73.0282C415.515 68.5399 416.021 60.5414 416.043 55.5677C416.081 49.1139 416.058 42.6599 415.975 36.2065C406.968 47.1767 396.647 57.8968 387.144 68.4637C383.987 71.9749 380.458 75.7063 377.097 79.0211C357.052 99.0394 335.048 116.994 311.415 132.616C253.292 170.716 186.448 193.438 117.147 198.652C106.877 199.402 97.5004 199.821 87.1701 199.751C83.7261 199.728 81.2056 199.357 78.7084 196.673C76.8972 194.718 75.9637 192.108 76.1245 189.448C76.3187 185.779 79.3453 181.448 82.4018 180.761C89.9709 179.06 99.9414 179.979 107.657 179.379C113.769 178.904 119.738 178.398 125.657 177.811C148.507 175.471 171.106 171.118 193.19 164.802C257.672 146.378 316.352 111.726 363.624 64.1579C374.954 52.7729 385.419 40.2907 396.209 28.3972C398.7 25.6508 401.146 22.5852 403.844 20.0769C393.196 19.8058 382.635 20.0289 371.988 20.0137C366.175 20.0054 359.669 20.3787 356.935 13.9956C355.825 11.3903 355.837 8.44237 356.97 5.84681C358.412 2.62429 361.236 1.14972 364.339 0Z"/></svg>