<svg width="134" height="45" viewBox="0 0 134 45" fill="none" xmlns="http://www.w3.org/2000/svg">
<path d="M4.55901 0.03573C13.1299 0.19284 22.2098 0.0314327 30.8082 0.0214044L37.7173 0.010897C39.3624 0.0096236 40.988 -0.0605734 42.6222 0.172306C46.5768 0.73612 46.3142 4.15195 46.3191 7.30594L46.3244 22.85C46.325 25.0363 46.3518 27.2936 46.2723 29.4715C46.0782 34.7972 39.4274 33.713 35.7981 33.6917L24.8174 33.6798L24.818 40.1334L32.363 40.1154C33.615 40.1003 34.9279 40.4328 35.0265 42.0217C35.06 42.5838 34.8766 43.1361 34.5174 43.5544C33.9444 44.2214 32.9061 44.3405 32.0864 44.3273C25.8436 44.2265 19.5881 44.3747 13.3494 44.262C12.4006 44.2448 11.3125 43.1441 11.4317 42.1167C11.7083 39.734 14.6035 40.1017 16.2132 40.102L21.6438 40.1095L21.6536 33.6977C17.723 33.5085 13.1004 33.7059 9.12041 33.7033C0.513979 33.6979 0.0517705 33.6527 0.0736142 24.6334L0.0740725 16.8148L0.0548054 9.41809C0.0296244 5.0432 -0.756751 0.624217 4.55901 0.03573ZM3.51143 29.9678C5.6553 30.3414 9.57321 30.2521 11.8289 30.2434L23.2252 30.2203L36.0695 30.2155C37.7542 30.2154 40.7771 30.3209 42.3714 30.1939C42.576 30.1288 42.7012 30.1343 42.7678 29.8889C43.2963 27.9386 43.083 24.7525 43.0715 22.8003L43.0683 14.7988L43.0684 8.50313C43.0677 7.05332 43.1275 5.19585 42.8844 3.80319C41.162 3.34348 37.4859 3.4549 35.5677 3.46127L26.4442 3.48483L12.252 3.48499C9.74963 3.4834 6.85397 3.40333 4.39109 3.50648C3.83165 3.60963 3.98895 3.5025 3.64749 3.84585C3.16829 5.12884 3.3256 14.4811 3.3573 16.4489C3.42086 20.3899 3.07015 26.1167 3.51143 29.9678Z" fill="white"/>
<path d="M24.8527 7.67235C25.7767 7.66169 26.7007 7.66694 27.6243 7.68811C25.6851 13.3119 24.2322 19.9696 22.2709 25.6246C21.4146 25.6744 20.3937 25.6367 19.5245 25.6275C19.7333 24.8777 19.9731 24.0869 20.2085 23.344C21.8489 18.1698 23.1931 12.8317 24.8527 7.67235Z" fill="white"/>
<path d="M16.5409 9.96088C17.0224 10.1078 18.1089 11.4514 18.5138 11.9029C16.859 13.4689 15.2382 15.2159 13.562 16.8207C15.226 18.495 16.9003 20.1582 18.5844 21.8105L16.721 23.6554C16.2471 23.5037 10.5343 17.6091 9.74265 16.8011L16.5409 9.96088Z" fill="white"/>
<path d="M29.7383 9.96533C30.2998 10.1955 35.7738 15.9362 36.6197 16.7917C34.4429 19.1097 32.0745 21.4944 29.8387 23.7571C29.3293 23.3058 28.4043 22.2841 27.8978 21.755L32.8909 16.8067C31.2491 15.1377 29.5385 13.4803 27.8712 11.8346C28.4615 11.3153 29.1746 10.5424 29.7383 9.96533Z" fill="white"/>
<path d="M74.7823 3.75034C78.907 3.28808 82.6142 6.40561 83.0843 10.7313C83.5544 15.0572 80.611 18.9708 76.4931 19.4953C72.3331 20.0252 68.5581 16.8973 68.0833 12.5272C67.6083 8.15706 70.6155 4.21737 74.7823 3.75034ZM75.8515 16.7228C78.5392 16.5648 80.5956 14.1491 80.4438 11.3281C80.292 8.5071 77.9894 6.3499 75.3017 6.51067C72.616 6.67128 70.5625 9.08604 70.7142 11.9051C70.8661 14.7242 73.1656 16.8807 75.8515 16.7228Z" fill="white"/>
<path d="M112.055 24.0464C114.531 24.037 117.838 23.9544 118.974 26.8247C119.389 27.9001 119.383 29.1035 118.96 30.1754C118.435 31.4904 117.596 32.1682 116.384 32.6973C117.431 34.4838 118.461 36.2795 119.479 38.0841C118.538 38.0936 117.598 38.0846 116.658 38.0569C116.29 37.5986 115.89 36.8702 115.579 36.3463C114.965 35.245 114.426 34.1931 113.859 33.0629C113.244 33.0091 112.486 33.0534 111.858 33.0717L111.863 38.0984L109.284 38.0928C109.302 33.6431 109.425 28.5174 109.275 24.107L112.055 24.0464ZM111.87 30.7763C113.304 30.8 114.922 30.9358 116.174 30.1092C117.813 26.4019 114.409 26.2707 111.867 26.4201L111.87 30.7763Z" fill="white"/>
<path d="M98.8958 24.0513C101.508 24.0093 105.096 23.7915 106.432 26.7258C106.895 27.7425 106.949 28.9112 106.585 29.9709C106.088 31.4062 105.191 32.0752 103.946 32.6943L107.087 38.0846L104.263 38.083L103.657 37.2108C102.86 35.8463 102.107 34.4532 101.402 33.0338C100.712 32.9515 100.128 32.9841 99.4389 33.0047L99.4419 38.0776L96.8409 38.0849L96.8374 24.1045L98.8958 24.0513ZM99.4404 30.7112C100.736 30.8023 101.98 30.9261 103.207 30.3741C103.566 30.1455 104.21 29.2423 104.255 28.8453C104.516 26.6071 101.508 26.4191 100.294 26.422C99.9607 26.446 99.7104 26.4035 99.4738 26.5816C99.3691 27.7296 99.4313 29.5113 99.4404 30.7112Z" fill="white"/>
<path d="M60.9091 23.7891C64.3163 23.4541 66.2226 24.5419 68.0399 27.5041C67.264 27.8038 66.3373 28.1002 65.5424 28.3765C64.9748 27.6365 64.5094 27.1036 63.6983 26.6555C62.7511 26.1211 61.6356 26.0223 60.6164 26.3822C55.2898 28.2216 57.4446 37.6709 63.4347 35.8317C64.6752 35.4508 65.4473 34.1283 65.947 32.9708C65.1222 32.9663 62.3857 33.1336 61.9367 32.686L61.9379 30.7805C64.1376 30.7634 66.3375 30.7631 68.5371 30.7797C68.4888 34.4067 67.1294 37.4653 63.5025 38.2829C61.5578 38.7146 59.5292 38.3071 57.8736 37.1521C56.3665 36.0967 55.3246 34.4519 54.9804 32.5849C54.121 28.0195 56.6895 24.6509 60.9091 23.7891Z" fill="white"/>
<path d="M98.5545 4.05867C101.78 4.05755 104.97 4.18505 108.192 4.05771L108.178 6.72874C106.051 6.67144 103.626 6.68751 101.497 6.73638L101.493 10.241L107.542 10.2474C107.556 11.0629 107.539 11.9385 107.536 12.7589C105.57 12.7502 103.603 12.7532 101.635 12.7679L101.558 12.8341C101.446 13.2895 101.496 15.8209 101.499 16.4521L108.22 16.4616L108.225 19.0999L98.5727 19.0973C98.4802 14.1756 98.556 9.00039 98.5545 4.05867Z" fill="white"/>
<path d="M125.841 24.0131L128.488 24.0225C130.313 28.4114 132.121 33.565 133.834 38.0852L131.012 38.0882C130.675 37.1381 130.354 36.1665 130.029 35.2103L128.527 35.2015L124.292 35.2087C123.957 36.1641 123.614 37.1164 123.264 38.0656L120.512 38.0734C122.316 33.4232 124.206 28.7293 125.841 24.0131ZM125.177 32.8371L127.475 32.8312L129.146 32.8377C128.758 31.7018 127.701 28.4268 127.141 27.5335L125.177 32.8371Z" fill="white"/>
<path d="M89.7109 3.84473C92.667 3.58575 94.5221 4.51329 95.6894 7.41943L93.1699 8.10931C92.9812 7.76055 92.7555 7.43535 92.4971 7.13991C91.4723 5.98873 88.2939 5.75378 88.3198 7.87214C88.3406 9.5674 90.4717 9.95962 91.7235 10.2664C93.787 10.7721 95.9351 11.7327 96.0401 14.3039C96.1766 18.0385 93.6869 19.2135 90.569 19.4182C87.4226 19.257 86.1318 18.4423 84.7693 15.4863L87.3865 14.7021C88.6261 16.705 90.8299 17.8634 92.8755 15.8719C93.0975 15.6555 93.1685 14.9941 93.0781 14.686C92.3071 12.06 88.6599 12.7661 86.8653 11.2902C85.574 10.2651 85.2693 9.28501 85.4434 7.57176C85.6875 5.1699 87.6798 4.20496 89.7109 3.84473Z" fill="white"/>
<path d="M70.9019 24.0201C71.7721 24.0042 72.6426 24.011 73.5125 24.0406C73.4952 26.5819 73.4741 29.1068 73.4766 31.6641C73.4785 33.8606 74.098 35.9531 76.5734 35.9643C80.0609 35.9801 79.7072 31.8336 79.6923 29.2842C79.6823 27.5636 79.6743 25.7865 79.6627 24.0416C80.5382 24.0312 81.4136 24.0276 82.289 24.0306L82.2814 26.6233C82.2928 29.5218 82.7903 34.6124 80.8591 36.7518C78.8014 39.0315 74.5113 39.0594 72.3559 36.8056C71.8515 36.2868 71.4815 35.6416 71.2805 34.9311C70.6721 32.8308 70.9029 26.514 70.9019 24.0201Z" fill="white"/>
<path d="M85.2378 24.122L94.1007 24.1261L94.1033 26.5199C91.9826 26.4478 89.8603 26.4446 87.7393 26.5106L87.7384 29.9604C89.6088 29.9277 91.5538 29.9569 93.4301 29.9593L93.4275 32.343L87.8754 32.3476C87.6539 32.8593 87.7343 35.042 87.7414 35.6856L94.1163 35.6953L94.1153 38.0785L85.24 38.0677L85.2378 24.122Z" fill="white"/>
<path d="M64.1308 4.11469C64.548 4.08079 65.0951 3.99833 65.4563 4.16977C65.4894 4.30141 65.5643 4.65972 65.5516 4.79232C65.1292 9.17739 67.3889 19.0857 61.0563 19.3996C59.4684 19.4784 58.1958 18.8616 57.0903 17.8185C56.5859 17.1778 56.399 16.7368 56.0661 15.9865C56.9016 15.6221 57.7244 15.2576 58.5734 14.9282C59.0253 15.7904 59.553 16.885 60.6422 16.8674C61.6928 16.8503 62.346 16.2136 62.489 15.1383C62.674 13.7492 62.623 12.3285 62.6247 10.9253C62.6309 8.66166 62.6225 6.3978 62.5996 4.13427L64.1308 4.11469Z" fill="white"/>
<path d="M102.976 0.0931859C103.738 0.0153471 104.917 0.075836 105.701 0.102897C105.1 1.03091 104.475 1.94206 103.829 2.83569C103.107 2.89045 102.001 2.86721 101.252 2.87182L102.976 0.0931859Z" fill="white"/>
</svg>
