<?xml version="1.0" encoding="utf-8" ?><svg xmlns="http://www.w3.org/2000/svg" xmlns:xlink="http://www.w3.org/1999/xlink" width="512" height="342" viewBox="0 0 512 342"><path fill="#30343E" transform="matrix(0.333333 0 0 0.333984 1.52588e-05 0)" d="M381.645 373.138C438.147 374.125 498.004 373.111 554.687 373.048L600.234 372.982C611.079 372.974 621.795 372.533 632.568 373.996C658.638 377.538 656.907 398.997 656.939 418.811L656.974 516.462C656.978 530.197 657.155 544.378 656.631 558.06C655.351 591.517 611.507 584.706 587.582 584.572L515.194 584.497L515.198 625.04L564.937 624.927C573.19 624.832 581.845 626.921 582.495 636.903C582.716 640.434 581.507 643.904 579.139 646.532C575.362 650.722 568.517 651.47 563.113 651.387C521.959 650.754 480.721 651.685 439.594 650.977C433.339 650.869 426.166 643.954 426.952 637.5C428.775 622.531 447.861 624.841 458.473 624.843L494.273 624.89L494.337 584.61C468.426 583.421 437.952 584.661 411.715 584.645C354.979 584.611 351.932 584.327 352.076 527.666L352.079 478.548L351.952 432.08C351.786 404.596 346.602 376.835 381.645 373.138ZM374.739 561.178C388.872 563.525 414.7 562.964 429.57 562.909L504.698 562.764L589.371 562.734C600.477 562.733 620.405 563.396 630.915 562.598C632.264 562.189 633.089 562.224 633.528 560.682C637.012 548.43 635.606 528.414 635.53 516.15L635.509 465.883L635.51 426.332C635.505 417.224 635.899 405.555 634.297 396.806C622.942 393.918 598.708 394.618 586.063 394.658L525.918 394.806L432.359 394.807C415.863 394.797 396.774 394.294 380.538 394.942C376.85 395.59 377.887 394.917 375.636 397.074C372.477 405.134 373.514 463.887 373.723 476.249C374.142 501.007 371.83 536.984 374.739 561.178Z"/><path fill="#30343E" transform="matrix(0.333333 0 0 0.333984 1.52588e-05 0)" d="M515.427 421.113C521.518 421.046 527.609 421.079 533.698 421.212C520.914 456.542 511.336 498.367 498.407 533.893C492.762 534.206 486.032 533.969 480.302 533.911C481.678 529.201 483.259 524.233 484.811 519.566C495.625 487.06 504.486 453.525 515.427 421.113Z"/><path fill="#30343E" transform="matrix(0.333333 0 0 0.333984 1.52588e-05 0)" d="M460.633 435.49C463.807 436.413 470.97 444.854 473.639 447.69C462.73 457.528 452.045 468.503 440.995 478.585C451.965 489.103 463.002 499.552 474.104 509.932L461.82 521.522C458.696 520.569 421.036 483.538 415.817 478.462L460.633 435.49Z"/><path fill="#30343E" transform="matrix(0.333333 0 0 0.333984 1.52588e-05 0)" d="M547.634 435.518C551.336 436.964 587.422 473.028 592.998 478.403C578.648 492.965 563.035 507.946 548.296 522.161C544.938 519.326 538.84 512.907 535.501 509.583L568.417 478.497C557.594 468.012 546.317 457.6 535.326 447.261C539.217 443.999 543.918 439.143 547.634 435.518Z"/><path fill="#30343E" transform="matrix(0.333333 0 0 0.333984 1.52588e-05 0)" d="M844.577 396.474C871.768 393.57 896.207 413.155 899.306 440.33C902.405 467.506 883.001 492.092 855.855 495.387C828.431 498.716 803.545 479.066 800.415 451.612C797.284 424.158 817.108 399.408 844.577 396.474ZM851.625 477.97C869.343 476.977 882.9 461.801 881.899 444.079C880.898 426.357 865.719 412.805 848.001 413.815C830.296 414.824 816.759 429.994 817.759 447.704C818.76 465.414 833.919 478.962 851.625 477.97Z"/><path fill="#30343E" transform="matrix(0.333333 0 0 0.333984 1.52588e-05 0)" d="M1090.29 523.978C1106.61 523.919 1128.41 523.4 1135.9 541.432C1138.64 548.188 1138.6 555.748 1135.81 562.482C1132.35 570.743 1126.82 575.001 1118.83 578.325C1125.73 589.548 1132.52 600.829 1139.23 612.166C1133.03 612.226 1126.83 612.169 1120.63 611.995C1118.21 609.116 1115.57 604.54 1113.52 601.249C1109.47 594.33 1105.92 587.722 1102.18 580.622C1098.13 580.284 1093.13 580.562 1088.99 580.677L1089.02 612.256L1072.02 612.221C1072.14 584.267 1072.95 552.066 1071.96 524.359L1090.29 523.978ZM1089.07 566.257C1098.52 566.406 1109.19 567.259 1117.44 562.066C1128.25 538.776 1105.81 537.952 1089.05 538.89L1089.07 566.257Z"/><path fill="#30343E" transform="matrix(0.333333 0 0 0.333984 1.52588e-05 0)" d="M1003.54 524.009C1020.76 523.745 1044.41 522.377 1053.22 540.811C1056.27 547.198 1056.63 554.54 1054.23 561.197C1050.95 570.214 1045.04 574.417 1036.83 578.306L1057.54 612.169L1038.92 612.159L1034.93 606.68C1029.67 598.108 1024.71 589.356 1020.06 580.439C1015.51 579.922 1011.66 580.127 1007.12 580.256L1007.14 612.125L989.993 612.171L989.97 524.343L1003.54 524.009ZM1007.13 565.848C1015.67 566.42 1023.87 567.198 1031.96 563.73C1034.33 562.294 1038.57 556.62 1038.87 554.126C1040.59 540.065 1020.76 538.884 1012.76 538.902C1010.56 539.053 1008.91 538.786 1007.35 539.905C1006.66 547.117 1007.07 558.31 1007.13 565.848Z"/><path fill="#30343E" transform="matrix(0.333333 0 0 0.333984 1.52588e-05 0)" d="M753.121 522.362C775.582 520.257 788.149 527.091 800.129 545.7C795.014 547.583 788.905 549.445 783.665 551.181C779.923 546.532 776.855 543.184 771.508 540.369C765.264 537.012 757.91 536.391 751.191 538.652C716.077 550.208 730.282 609.57 769.77 598.016C777.948 595.623 783.038 587.315 786.332 580.043C780.895 580.015 762.855 581.066 759.895 578.254L759.903 566.283C774.404 566.176 788.906 566.174 803.407 566.278C803.088 589.064 794.127 608.279 770.217 613.415C757.397 616.127 744.024 613.567 733.11 606.311C723.175 599.681 716.306 589.348 714.037 577.619C708.372 548.938 725.304 527.776 753.121 522.362Z"/><path fill="#30343E" transform="matrix(0.333333 0 0 0.333984 1.52588e-05 0)" d="M1001.29 398.411C1022.55 398.404 1043.58 399.205 1064.82 398.405L1064.73 415.185C1050.71 414.825 1034.72 414.926 1020.69 415.233L1020.66 437.25L1060.54 437.29C1060.63 442.413 1060.52 447.914 1060.5 453.068C1047.54 453.013 1034.57 453.032 1021.6 453.124L1021.09 453.54C1020.35 456.401 1020.68 472.304 1020.7 476.269L1065.01 476.329L1065.04 492.903L1001.41 492.887C1000.8 461.968 1001.3 429.456 1001.29 398.411Z"/><path fill="#30343E" transform="matrix(0.333333 0 0 0.333984 1.52588e-05 0)" d="M1181.17 523.769L1198.62 523.828C1210.65 551.4 1222.57 583.776 1233.86 612.173L1215.26 612.192C1213.04 606.223 1210.92 600.119 1208.78 594.112L1198.88 594.057L1170.96 594.102C1168.75 600.104 1166.49 606.087 1164.18 612.05L1146.04 612.099C1157.93 582.885 1170.39 553.397 1181.17 523.769ZM1176.79 579.203L1191.94 579.166L1202.96 579.207C1200.4 572.071 1193.43 551.497 1189.74 545.885L1176.79 579.203Z"/><path fill="#30343E" transform="matrix(0.333333 0 0 0.333984 1.52588e-05 0)" d="M942.99 397.067C962.478 395.44 974.707 401.267 982.402 419.524L965.793 423.858C964.549 421.667 963.061 419.624 961.358 417.768C954.602 410.536 933.649 409.06 933.82 422.368C933.957 433.018 948.006 435.482 956.258 437.409C969.861 440.586 984.022 446.621 984.714 462.774C985.614 486.235 969.201 493.617 948.647 494.903C927.905 493.89 919.396 488.772 910.414 470.202L927.667 465.275C935.839 477.858 950.367 485.135 963.852 472.624C965.316 471.265 965.784 467.11 965.188 465.174C960.105 448.677 936.062 453.113 924.231 443.841C915.719 437.401 913.71 431.244 914.858 420.481C916.467 405.392 929.601 399.33 942.99 397.067Z"/><path fill="#30343E" transform="matrix(0.333333 0 0 0.333984 1.52588e-05 0)" d="M818.996 523.813C824.733 523.713 830.471 523.756 836.206 523.942C836.092 539.907 835.953 555.769 835.969 571.834C835.982 585.633 840.066 598.779 856.384 598.849C879.375 598.948 877.043 572.899 876.945 556.883C876.879 546.074 876.826 534.91 876.75 523.948C882.521 523.883 888.292 523.86 894.063 523.879L894.013 540.167C894.088 558.376 897.368 590.356 884.637 603.796C871.072 618.118 842.79 618.293 828.581 604.134C825.256 600.875 822.817 596.822 821.492 592.358C817.481 579.164 819.003 539.48 818.996 523.813Z"/><path fill="#30343E" transform="matrix(0.333333 0 0 0.333984 1.52588e-05 0)" d="M913.502 524.453L971.929 524.479L971.946 539.517C957.966 539.064 943.975 539.044 929.993 539.459L929.987 561.131C942.317 560.926 955.139 561.109 967.508 561.124L967.491 576.099L930.89 576.128C929.43 579.343 929.96 593.055 930.007 597.098L972.032 597.159L972.025 612.131L913.517 612.063L913.502 524.453Z"/><path fill="#30343E" transform="matrix(0.333333 0 0 0.333984 1.52588e-05 0)" d="M774.359 398.763C777.109 398.55 780.716 398.032 783.097 399.109C783.315 399.936 783.809 402.187 783.725 403.02C780.941 430.568 795.837 492.814 754.091 494.786C743.623 495.281 735.234 491.406 727.946 484.853C724.621 480.828 723.389 478.058 721.194 473.344C726.702 471.055 732.126 468.765 737.723 466.696C740.702 472.112 744.181 478.989 751.361 478.878C758.287 478.771 762.593 474.771 763.536 468.016C764.755 459.289 764.419 450.364 764.43 441.549C764.471 427.328 764.416 413.106 764.265 398.886L774.359 398.763Z"/><path fill="#30343E" transform="matrix(0.333333 0 0 0.333984 1.52588e-05 0)" d="M1030.44 373.499C1035.46 373.01 1043.23 373.39 1048.4 373.56C1044.44 379.39 1040.32 385.114 1036.06 390.728C1031.3 391.072 1024.01 390.926 1019.07 390.955L1030.44 373.499Z"/></svg>