<?xml version="1.0" encoding="utf-8" ?><svg xmlns="http://www.w3.org/2000/svg" fill="#0A5AD9" xmlns:xlink="http://www.w3.org/1999/xlink" width="512" height="512" viewBox="0 0 512 512"><path d="M90.8746 0L96.6965 0C99.4376 0.71069 101.509 0.948875 104.376 1.84796C112.341 4.35866 119.073 9.76957 123.237 17.0087C127.749 24.9176 128.996 34.2755 126.711 43.0898C124.333 51.7639 118.63 59.1502 110.84 63.6457C108.375 65.0683 105.255 66.4014 102.443 66.9239L102.44 111.436C120.198 112.448 141.083 121.556 154.512 133.162C158.099 129.504 164.354 124.495 168.502 120.953L192.749 100.202C194.854 98.4106 203.331 91.4514 204.867 89.6875C205.37 83.8959 205.732 79.8185 206.946 74.1255C211.369 53.6213 222.536 35.1912 238.665 21.7801C250.23 12.094 263.983 5.37508 278.732 2.20599C282.08 1.46155 289.512 0.761009 292.048 0L305.599 0C307.504 0.539302 310.14 0.830412 312.157 1.09549C349.572 6.01303 381.22 35.2265 389.778 71.8937C390.342 74.3105 390.919 76.8325 391.461 79.3133C394.231 80.9506 398.078 82.678 401.036 84.0969L416.644 91.5638C429.665 97.8117 442.93 104.547 456.014 110.585C469.182 98.5178 491.092 100.317 502.894 113.473C506.687 117.628 509.392 122.657 510.766 128.112C511.005 129.055 511.742 132.792 512 133.381L512 139.68C511.219 142.556 511.01 144.58 509.986 147.643C507.317 155.381 501.946 161.896 494.858 165.991C486.99 170.55 477.618 171.75 468.854 169.323C459.998 166.889 452.502 160.978 448.069 152.934C443.506 144.8 442.811 135.348 445.345 126.451C445.518 125.847 445.696 125.244 445.877 124.643C439.214 121.828 431.063 117.576 424.375 114.312L392.399 98.8382C390.698 122.482 380.599 146.746 362.48 162.451C362.14 162.746 361.796 163.035 361.449 163.32L389.715 201.066C394.705 207.745 400.413 215.798 405.626 222.097C410.519 222.179 416.233 222.017 421.025 222.573C442.211 225.223 461.858 235.024 476.718 250.354C494.722 268.943 503.747 292.111 503.293 317.958C502.757 342.587 492.51 366.007 474.783 383.115C456.757 400.787 432.304 410.343 407.072 409.576C382.556 408.935 359.281 398.652 342.298 380.959C336.163 374.474 332.335 369.447 327.969 361.773C325.908 363.765 318.089 369.473 315.474 371.389C308.331 376.621 300.834 382.661 293.626 387.668C296.097 395.192 297.656 403.828 298.311 411.719C298.57 414.843 298.411 418.192 298.634 421.245C306.278 425.261 314.775 429.095 322.604 432.852L362.159 451.952C367.963 446.461 376.853 443.556 384.771 443.793C393.951 444.051 402.643 447.983 408.897 454.707C414.988 461.346 418.216 470.12 417.88 479.124C417.271 494.028 407.806 506.191 393.405 510.539C391.704 511.052 389.801 511.413 388.158 512L380.325 512C379.284 511.591 375.514 510.801 374.008 510.326C365.115 507.603 357.721 501.364 353.543 493.054C349.135 484.368 349.127 475.082 352.055 465.971C348.935 464.677 345.406 462.949 342.408 461.388C327.381 453.559 311.06 446.932 296.186 438.927C294.172 447.411 292.413 452.625 288.477 460.489C276.963 483.114 256.851 500.17 232.649 507.834C227.875 509.36 223.226 510.211 218.311 511.034C216.929 511.266 215.422 511.526 214.111 512L195.598 512C193.911 511.373 184.764 509.91 181.613 509.126C165.657 505.156 153.406 497.801 141.21 486.982C125.291 472.861 112.414 448.056 111.395 426.67C96.5963 426.469 81.7958 426.434 66.9964 426.564C66.4252 429.391 65.86 430.973 64.525 433.55C50.8337 459.964 12.3658 457.619 2.19095 429.652C1.01886 426.43 0.949514 423.027 0 420.106L0 416.393C0.424996 415.407 0.650944 413.329 0.867627 412.14C7.29149 376.9 56.523 373.801 67.096 409.572L95.3001 409.543C99.5005 409.543 107.465 409.309 111.431 409.692C111.526 405.261 113.238 397.232 114.419 392.974C121.002 369.226 137.121 348.691 158.46 336.515C180.297 324.22 206.121 321.094 230.261 327.824C253.863 334.219 274.326 350.776 286.422 371.919C288.272 370.328 290.306 368.793 292.294 367.378C301.869 360.563 311.128 352.67 320.873 346.157C320.483 345.24 320.142 344.304 319.851 343.351C312.578 319.235 315.195 293.217 327.126 271.033C335.901 254.831 349.971 240.93 366.369 232.439C373.154 228.925 379.102 226.949 386.376 224.788C383.199 221.292 378.238 214.18 375.186 210.11L358.838 188.345C355.215 183.495 351.568 178.394 347.802 173.688C336.04 182.506 315.481 187.376 300.925 187.7C275.877 188.375 251.619 178.9 233.659 161.427C221.863 150.086 213.238 135.857 208.64 120.153C207.887 117.598 206.61 113.178 206.557 110.666C204.456 112.946 196.412 119.512 193.79 121.757L166.274 145.347C168.215 147.37 171.89 152.732 173.393 155.121C182.506 169.598 186.14 183.547 187.584 200.353C192.63 204.737 199.298 209.608 204.683 213.796L235.107 237.581C236.436 236.418 238.755 235.081 240.33 234.268C248.415 230.068 257.853 229.31 266.505 232.167C275.175 235.013 282.342 241.214 286.406 249.385C290.294 257.205 290.963 267.414 288.124 275.643C285.135 284.274 278.809 291.346 270.562 295.274C262.344 299.155 252.916 299.586 244.378 296.471C235.755 293.316 228.765 286.822 224.986 278.453C221.019 269.751 221.345 259.925 224.702 251.096C217.135 245.483 209.285 238.832 201.674 233.065C198.351 230.547 188.947 223.555 186.34 221.018C182.145 242.42 172.702 259.651 156.652 274.427C126.431 302.25 79.9738 306.723 45.0935 284.883C24.6948 272.11 9.29647 252.481 3.25081 228.896C2.29376 225.121 1.55497 221.295 1.03813 217.436C0.706017 214.893 0.601431 212.13 0 209.655L0 200.281C0.424536 198.842 0.549513 196.1 0.767521 194.534C1.18095 191.565 1.58407 188.557 2.1822 185.617C5.31638 169.729 12.6496 154.972 23.4193 142.878C38.8354 125.599 62.1209 112.633 85.4918 111.374C85.0931 108.832 85.2816 98.7751 85.3052 95.7638C85.3794 86.2942 85.1451 76.5578 85.384 67.1211C82.2677 66.2043 80.0122 65.3168 77.1402 63.7169C69.318 59.2789 63.5495 51.9487 61.0752 43.3022C58.6998 34.5957 59.8219 25.3055 64.202 17.4149C68.3466 9.94626 75.2026 4.35566 83.3525 1.7988C86.209 0.906197 88.1916 0.763368 90.6235 0.0732206L90.8746 0ZM247.584 151.212C247.272 142.004 247.857 135.03 254.449 127.802C259.229 122.561 266.974 119.554 273.993 119.496C284.242 119.411 294.596 119.483 304.875 119.474L317.164 119.448C322.368 119.444 326.837 119.234 331.88 120.894C341.517 124.066 348.848 132.752 349.577 142.979C349.763 145.594 350.05 148.465 349.836 151.084C365.507 136.013 374.962 117.693 375.421 95.679C375.892 75.1914 368.129 55.3705 353.869 40.652C339.817 25.9714 320.48 17.5159 300.162 17.1669C297.779 17.1402 295.396 17.2029 293.018 17.3551C284.775 17.7122 276.408 20.0866 268.745 23.2512C240.005 35.1209 220.922 64.8027 221.911 95.893C222.628 118.433 231.64 135.608 247.584 151.212ZM153.85 475.587C152.971 467.553 154.172 460.054 159.328 453.607C167.925 442.856 178.95 443.646 191.351 443.685L211.375 443.714L223.388 443.71C233.276 443.722 240.827 444.03 248.448 451.502C255.387 458.306 255.925 466.242 256.116 475.365C259.003 472.367 262.169 469.19 264.739 465.951C275.778 452.188 281.692 435.017 281.469 417.375C281.103 396.515 273.233 377.574 258.167 363.024C245.691 350.964 229.523 343.447 212.262 341.679C208.94 341.358 204.884 341.403 201.53 341.469C200.457 341.492 199.383 341.531 198.31 341.586C192.278 342.385 187.819 343.085 181.952 344.876C166.816 349.63 153.517 358.942 143.874 371.541C131.577 387.481 126.092 407.642 128.619 427.615C130.559 442.793 136.955 457.056 147 468.6C149.094 471.011 151.566 473.334 153.85 475.587ZM433.065 388.514C436.915 387.213 440.001 385.92 443.746 384.326L443.708 383.983C443.058 377.64 444.534 370.612 443.11 364.323C442.852 363.185 441.404 361.414 440.509 360.67C437.125 357.852 431.939 358.42 427.716 358.416L414.608 358.409L395.328 358.407C391.644 358.406 387.077 358.278 383.464 358.55C372.828 361.378 375.881 369.994 375.454 378.466C375.366 380.231 375.457 382.422 375.553 384.199C393.845 392.96 413.667 394.755 433.065 388.514ZM36.5966 434.892C45.8731 433.497 52.2596 424.842 50.857 415.567C49.4545 406.291 40.7947 399.912 31.5204 401.322C22.2564 402.73 15.8856 411.378 17.2866 420.643C18.6875 429.908 27.3305 436.286 36.5966 434.892ZM476.504 119.615C467.163 120.346 460.181 128.508 460.906 137.849C461.631 147.19 469.787 154.178 479.129 153.46C488.481 152.741 495.476 144.574 494.751 135.223C494.026 125.873 485.854 118.883 476.504 119.615ZM385.128 494.788C394.451 494.165 401.516 486.121 400.929 476.796C400.343 467.471 392.327 460.375 383 460.925C373.621 461.477 366.477 469.548 367.066 478.925C367.656 488.302 375.754 495.414 385.128 494.788ZM273.181 136.569C268.627 137.552 264.748 140.138 264.584 145.034C264.404 150.386 264.221 157.119 264.576 162.421C268.427 164.092 272.141 165.781 276.17 166.976C291.437 171.501 305.623 171.394 320.809 167.055C325.16 165.701 328.968 163.788 332.803 162.593C332.567 156.067 333.271 149.273 332.248 142.875C331.77 139.882 327.58 136.89 324.61 136.681C318.535 136.253 312.37 136.551 306.276 136.462C295.437 136.659 283.928 136.156 273.181 136.569ZM91.1613 17.3748C81.9864 18.8423 75.7007 27.4194 77.0647 36.6103C78.4287 45.8012 86.9344 52.1831 96.1401 50.9227C102.188 50.0947 107.324 46.0802 109.589 40.4114C111.853 34.7426 110.896 28.2943 107.083 23.5274C103.27 18.7605 97.189 16.4108 91.1613 17.3748ZM183.363 460.621C166.595 460.929 171.247 472.383 170.496 484.312C170.291 487.563 174.692 488.468 177.295 489.483C189.153 494.126 201.997 495.671 214.617 493.973C217.643 493.553 221.266 492.921 224.188 492.083C229.747 490.622 233.718 488.991 239 486.721C238.838 480.175 239.433 473.21 238.273 466.827C237.863 464.57 234.683 461.613 232.446 461.247C226.311 460.243 219.684 460.596 213.445 460.593L183.363 460.621ZM460.76 372.972C462.382 371.391 463.974 369.83 465.525 368.179C493.982 337.883 492.946 291.059 463.938 261.554C449.612 247.234 430.231 239.121 409.977 238.965C408.886 238.955 406.92 238.989 405.827 239.105C342.259 243.251 310.539 315.255 350.412 364.557C353.016 367.776 355.945 370.202 358.577 373.18C358.392 369.075 358.229 365.326 359.19 361.293C362.155 348.852 372.994 341.383 385.497 341.308C394.998 341.25 404.373 341.293 413.812 341.316L426.94 341.29C434.412 341.25 441.128 340.96 447.789 344.973C458.262 351.282 460.859 360.026 460.797 371.625C460.796 372.074 460.784 372.524 460.76 372.972ZM254.58 247.642C245.245 248.414 238.302 256.607 239.073 265.943C239.845 275.279 248.039 282.221 257.375 281.45C266.71 280.678 273.652 272.484 272.881 263.149C272.109 253.813 263.916 246.871 254.58 247.642ZM94.5048 230.4C99.2522 230.413 104 230.398 108.747 230.356C119.758 230.24 129.186 229.886 137.603 238.266C144.1 244.735 145.541 253.194 145.09 262.034C161.208 245.97 170.484 228.46 170.508 205.18C170.7 184.553 162.534 164.726 147.87 150.219C133.943 136.217 113.15 127.695 93.3744 128.112C90.4061 128.233 87.0402 128.313 84.1217 128.701C66.3154 131.004 49.8808 139.479 37.6799 152.652C11.9419 180.572 10.1029 222.291 33.4875 252.172C36.3319 255.807 39.5291 258.985 42.8178 262.201C42.0434 253.859 43.345 246.306 48.7657 239.768C58.0542 228.563 71.1456 230.322 84.1225 230.387C87.5358 230.405 91.0551 230.417 94.5048 230.4ZM127.992 273.405C128.04 267.043 128.51 259.928 127.42 253.698C126.949 251.003 123.266 248.095 120.508 247.798C114.568 247.156 108.478 247.593 102.501 247.474C91.9832 247.576 81.249 247.302 70.7752 247.487C70.0483 247.501 69.3215 247.521 68.5949 247.547C56.3657 249.907 60.1429 260.281 59.5947 269.426C59.5249 270.59 59.6556 272.178 59.7775 273.326C78.7594 281.9 95.6124 283.67 115.811 278.074C120.475 276.549 123.568 275.13 127.992 273.405Z"/><path d="M295.95 34.3396C314.722 32.8503 331.133 46.893 332.564 65.6696C333.995 84.4462 319.902 100.814 301.121 102.186C282.422 103.553 266.142 89.5346 264.717 70.8403C263.292 52.146 277.26 35.8225 295.95 34.3396ZM299.871 85.1975C309.246 84.5144 316.282 76.3451 315.568 66.9727C314.854 57.6003 306.661 50.5912 297.291 51.3362C287.965 52.0777 280.995 60.2237 281.706 69.5526C282.417 78.8814 290.54 85.8776 299.871 85.1975Z"/><path d="M405.222 256.371C423.925 253.945 441.032 267.195 443.362 285.909C445.691 304.624 432.353 321.663 413.627 323.895C395.037 326.111 378.149 312.892 375.837 294.314C373.525 275.736 386.656 258.78 405.222 256.371ZM411.665 306.984C417.729 306.231 422.922 302.279 425.264 296.636C427.606 290.992 426.737 284.525 422.988 279.7C419.238 274.875 413.187 272.434 407.139 273.309C397.919 274.643 391.493 283.154 392.734 292.387C393.975 301.62 402.42 308.131 411.665 306.984Z"/><path d="M201.732 358.641C220.423 356.966 236.938 370.75 238.632 389.44C240.325 408.131 226.557 424.659 207.868 426.371C189.154 428.085 172.597 414.293 170.901 395.577C169.206 376.861 183.014 360.318 201.732 358.641ZM206.454 409.403C215.789 408.471 222.595 400.14 221.648 390.806C220.701 381.473 212.359 374.679 203.027 375.641C193.716 376.601 186.941 384.92 187.886 394.233C188.831 403.546 197.139 410.334 206.454 409.403Z"/><path d="M90.4234 145.343C109.189 143.444 125.917 157.179 127.707 175.955C129.497 194.732 115.665 211.379 96.8777 213.059C78.2452 214.726 61.7647 201.032 59.9897 182.41C58.2148 163.787 71.8117 147.227 90.4234 145.343ZM95.1289 196.105C101.213 195.646 106.581 191.954 109.187 186.437C111.792 180.92 111.234 174.428 107.724 169.438C104.214 164.447 98.2937 161.727 92.2207 162.314C82.9669 163.208 76.1581 171.386 76.9553 180.648C77.7525 189.911 85.8584 196.805 95.1289 196.105Z"/></svg>